<svg width="26" height="35" viewBox="0 0 26 35" fill="none" xmlns="http://www.w3.org/2000/svg">
<path id="Vector" fill-rule="evenodd" clip-rule="evenodd" d="M57.9896 33.7669V11.2291H57.8428L48.7767 33.7669H45.3159L36.2283 11.2291H36.0831V33.7669H31.8313V3.14396H37.2294L46.9629 27.5479H47.1297L56.8415 3.14571H62.2614V33.7687H57.9896V33.7669ZM85.7714 33.7669H81.4562V29.9899H81.3526C80.143 32.6638 77.9135 34.1692 74.5578 34.1692C69.7855 34.1692 66.8652 31.008 66.8652 25.8939V11.4411H71.3673V25.0025C71.3673 28.3975 72.9527 30.2218 76.0564 30.2218C79.3103 30.2218 81.2694 27.9302 81.2694 24.4501V11.4411H85.7698V33.7669H85.7714ZM98.1097 11.0371C103.216 11.0371 106.53 13.9248 106.677 18.0407H102.445C102.195 15.8775 100.631 14.5189 98.1097 14.5189C95.6701 14.5189 94.0447 15.7274 94.0447 17.5116C94.0447 18.912 95.0459 19.865 97.4205 20.4175L100.985 21.2454C105.467 22.3068 107.176 24.0896 107.176 27.3142C107.176 31.3902 103.445 34.1909 98.2765 34.1909C92.795 34.1909 89.4992 31.4536 89.0838 27.2091H93.5441C93.9613 29.5425 95.5249 30.6891 98.2765 30.6891C100.985 30.6891 102.654 29.5425 102.654 27.7182C102.654 26.2745 101.841 25.4265 99.4429 24.874L95.8786 24.0261C91.7103 23.0497 89.6462 21.0118 89.6462 17.767C89.6462 13.7762 93.0653 11.0371 98.1097 11.0371ZM110.299 5.54246C110.299 4.07712 111.467 2.91039 112.904 2.91039C114.343 2.91039 115.491 4.07872 115.491 5.54246C115.491 6.98447 114.343 8.17307 112.904 8.17307C112.183 8.16709 111.568 7.90756 111.06 7.39447C110.553 6.88167 110.3 6.26419 110.301 5.54246H110.299ZM110.653 11.4411H115.155V33.7669H110.653V11.4411ZM134.163 19.124C133.704 16.7471 131.954 14.8578 129.015 14.8578C125.534 14.8578 123.242 17.807 123.242 22.6024C123.242 27.5062 125.554 30.3504 129.057 30.3504C131.827 30.3504 133.643 28.8014 134.163 26.211H138.5C138.021 30.9646 134.29 34.1909 129.017 34.1909C122.743 34.1909 118.658 29.818 118.658 22.6041C118.658 15.5154 122.743 11.0371 128.975 11.0371C134.624 11.0371 138.063 14.7309 138.458 19.124H134.165H134.163ZM18.0613 6.13165C16.8966 7.52365 15.0494 8.62871 13.2005 8.46511C12.9584 6.58234 13.8846 4.57606 14.9293 3.34926C16.0922 1.91395 18.1014 0.892445 19.7484 0.808899C19.9502 2.77508 19.1877 4.69795 18.0629 6.1334L18.0613 6.13165ZM19.7283 8.834C20.7697 8.91565 23.7748 9.24123 25.6989 12.1388C25.5386 12.2623 22.1329 14.2619 22.173 18.4647C22.213 23.4887 26.4998 25.1611 26.5399 25.2028C26.4998 25.3263 25.8607 27.5712 24.2973 29.8963C22.934 31.9393 21.5322 33.939 19.2878 33.9807C17.1235 34.0206 16.4009 32.6737 13.918 32.6737C11.4335 32.6737 10.6307 33.939 8.58824 34.0206C6.42391 34.1008 4.7836 31.8559 3.42033 29.8146C0.613583 25.6918 -1.5089 18.1808 1.37614 13.1185C2.77791 10.5882 5.34262 8.99584 8.10767 8.95414C10.2319 8.9158 12.196 10.3845 13.4775 10.3845C14.7606 10.3845 17.0435 8.67041 19.7283 8.83225V8.834Z" fill="#E6E6E6"/>
</svg>
