<svg width="31" height="30" viewBox="0 0 31 30" fill="none" xmlns="http://www.w3.org/2000/svg">
<path id="Vector" d="M14.6213 -6.10352e-05C6.54636 -6.10352e-05 0 6.54612 0 14.6211C0 22.6964 6.54636 29.2421 14.6213 29.2421C22.6972 29.2421 29.2428 22.6964 29.2428 14.6211C29.2428 6.54665 22.6972 0.000637351 14.6212 0.000637351L14.6213 -6.10352e-05ZM21.3266 21.0878C21.2642 21.1901 21.1822 21.279 21.0854 21.3495C20.9886 21.4201 20.8789 21.4708 20.7624 21.4989C20.646 21.5269 20.5251 21.5317 20.4068 21.513C20.2885 21.4943 20.1751 21.4525 20.073 21.3899C16.64 19.293 12.3184 18.8181 7.22886 19.9809C6.9932 20.0345 6.74589 19.9923 6.5413 19.8636C6.33672 19.735 6.19158 19.5303 6.1378 19.2947C6.11102 19.178 6.10751 19.0572 6.12748 18.9392C6.14744 18.8212 6.1905 18.7083 6.25417 18.6069C6.31784 18.5055 6.40088 18.4177 6.49854 18.3485C6.59619 18.2793 6.70654 18.23 6.82327 18.2035C12.3929 16.931 17.1704 17.4789 21.0245 19.8342C21.454 20.0979 21.5902 20.6583 21.3266 21.0878ZM23.1162 17.1067C22.7862 17.643 22.0843 17.8124 21.5483 17.4824C17.6181 15.0667 11.6272 14.367 6.97849 15.7781C6.37561 15.9603 5.73885 15.6205 5.55587 15.0186C5.46856 14.7293 5.49956 14.4171 5.64206 14.1506C5.78457 13.8841 6.02696 13.685 6.31607 13.5969C11.6261 11.9857 18.2275 12.7662 22.7408 15.5396C23.2768 15.8696 23.4462 16.5713 23.1162 17.1067ZM23.2698 12.961C18.5575 10.162 10.7826 9.90468 6.28342 11.2702C5.56093 11.4893 4.79689 11.0815 4.57795 10.359C4.47267 10.0119 4.50956 9.63716 4.6805 9.31724C4.85144 8.99733 5.14245 8.7584 5.48952 8.65299C10.6543 7.08511 19.2401 7.38803 24.6656 10.6088C24.8202 10.7003 24.9553 10.8214 25.063 10.9651C25.1708 11.1089 25.2491 11.2725 25.2936 11.4466C25.338 11.6206 25.3477 11.8018 25.322 11.9796C25.2963 12.1574 25.2358 12.3284 25.144 12.4828C24.7599 13.1326 23.9183 13.3469 23.2705 12.961H23.2698ZM39.7798 13.4974C37.2551 12.8954 36.8064 12.4728 36.8064 11.585C36.8064 10.7462 37.5956 10.1818 38.7706 10.1818C39.909 10.1818 41.0369 10.6104 42.2207 11.4928C42.2556 11.5195 42.301 11.5302 42.3446 11.5232C42.3666 11.5201 42.3877 11.5124 42.4066 11.5009C42.4255 11.4893 42.4418 11.4739 42.4546 11.4558L43.6873 9.71821C43.7116 9.68376 43.7219 9.64133 43.7161 9.59955C43.7102 9.55777 43.6887 9.51979 43.6559 9.49333C42.2468 8.36316 40.6615 7.8137 38.8073 7.8137C36.0818 7.8137 34.1769 9.44951 34.1769 11.79C34.1769 14.2998 35.8199 15.1885 38.6589 15.8745C41.0736 16.431 41.4821 16.8971 41.4821 17.7303C41.4821 18.6539 40.658 19.2284 39.3311 19.2284C37.8575 19.2284 36.6545 18.7308 35.3101 17.5679C35.2766 17.5396 35.2334 17.5252 35.1896 17.5278C35.1442 17.5313 35.1041 17.5522 35.0761 17.5854L33.6933 19.2301C33.6357 19.3 33.6427 19.4012 33.709 19.4606C35.2734 20.8574 37.1975 21.5942 39.2752 21.5942C42.2119 21.5942 44.1098 19.9896 44.1098 17.5051C44.115 15.4087 42.8597 14.2476 39.785 13.4996L39.7798 13.4974ZM50.755 11.0076C49.4822 11.0076 48.4381 11.5091 47.5756 12.5366V11.38C47.5758 11.3363 47.5586 11.2943 47.5278 11.2632C47.497 11.2322 47.4552 11.2146 47.4114 11.2143H45.1504C45.0596 11.2143 44.9863 11.2887 44.9863 11.38V24.2306C44.9863 24.3214 45.0596 24.3965 45.1504 24.3965H47.4114C47.5022 24.3965 47.5756 24.3214 47.5756 24.2306V20.1747C48.4381 21.1402 49.4822 21.6134 50.755 21.6134C53.1208 21.6134 55.5163 19.7923 55.5163 16.311C55.5198 12.829 53.1243 11.0074 50.7567 11.0074L50.755 11.0076ZM52.8868 16.311C52.8868 18.083 51.7956 19.3209 50.2312 19.3209C48.686 19.3209 47.5197 18.0271 47.5197 16.311C47.5197 14.5947 48.686 13.3013 50.2312 13.3013C51.7694 13.3011 52.8868 14.5668 52.8868 16.311ZM61.6534 11.0076C58.6066 11.0076 56.2199 13.3535 56.2199 16.3489C56.2199 19.3122 58.5909 21.6326 61.6167 21.6326C64.6739 21.6326 67.0676 19.2947 67.0676 16.311C67.0676 13.3374 64.6896 11.008 61.6534 11.008V11.0076ZM61.6534 19.3384C60.0331 19.3384 58.8109 18.0359 58.8109 16.3101C58.8109 14.5766 59.9912 13.3186 61.6167 13.3186C63.2474 13.3186 64.4766 14.6206 64.4766 16.348C64.4766 18.0813 63.2894 19.3384 61.6534 19.3384ZM73.5731 11.2143H71.0851V8.67115C71.0852 8.64951 71.0811 8.62806 71.0729 8.60802C71.0647 8.58799 71.0526 8.56977 71.0374 8.5544C71.0221 8.53903 71.004 8.52681 70.984 8.51845C70.9641 8.51008 70.9427 8.50572 70.921 8.50563H68.66C68.5692 8.50563 68.4941 8.58001 68.4941 8.67115V11.2143H67.4081C67.3173 11.2143 67.244 11.2887 67.244 11.38V13.3228C67.244 13.4139 67.3173 13.4885 67.4081 13.4885H68.4941V18.516C68.4941 20.5466 69.505 21.5767 71.5007 21.5767C72.3108 21.5767 72.983 21.4091 73.6168 21.0494C73.6692 21.0215 73.7006 20.9656 73.7006 20.9062V19.0555C73.7006 18.9996 73.6709 18.9455 73.622 18.9158C73.5983 18.9006 73.5709 18.892 73.5427 18.8907C73.5145 18.8895 73.4864 18.8958 73.4614 18.9089C73.0267 19.1271 72.6059 19.2284 72.1345 19.2284C71.4099 19.2284 71.0851 18.8984 71.0851 18.1616V13.4893H73.5731C73.6639 13.4893 73.7373 13.415 73.7373 13.3237V11.3811C73.738 11.3594 73.7343 11.3378 73.7265 11.3176C73.7186 11.2974 73.7067 11.279 73.6916 11.2635C73.6764 11.248 73.6582 11.2357 73.6382 11.2275C73.6181 11.2192 73.5966 11.2151 73.5749 11.2154L73.5731 11.2143ZM82.2402 11.2243V10.9119C82.2402 9.99303 82.5929 9.58325 83.382 9.58325C83.8535 9.58325 84.2323 9.67683 84.6566 9.81826C84.709 9.83467 84.7631 9.82646 84.805 9.79521C84.8263 9.77987 84.8435 9.75966 84.8554 9.73627C84.8672 9.71288 84.8733 9.68699 84.8731 9.66077V7.75591C84.8735 7.72034 84.8623 7.68559 84.8412 7.65695C84.8201 7.62832 84.7902 7.60734 84.7561 7.5972C84.3092 7.46398 83.7365 7.32727 82.8774 7.32727C80.791 7.32727 79.6858 8.50301 79.6858 10.7262V11.2046H78.5998C78.509 11.2046 78.4339 11.2789 78.4339 11.3701V13.3228C78.4339 13.4139 78.509 13.4885 78.5998 13.4885H79.6858V21.2415C79.6858 21.334 79.7609 21.4073 79.8517 21.4073H82.111C82.2035 21.4073 82.2768 21.334 82.2768 21.2415V13.489H84.3877L87.6213 21.2415C87.2546 22.0551 86.8932 22.2175 86.4008 22.2175C86.0027 22.2175 85.582 22.0987 85.1542 21.863C85.1137 21.8426 85.0669 21.8382 85.0233 21.8508C84.9796 21.8665 84.9429 21.898 84.9255 21.9399L84.159 23.6212C84.1223 23.7016 84.1538 23.7941 84.2306 23.836C85.0302 24.269 85.7513 24.4541 86.6435 24.4541C88.3127 24.4541 89.2363 23.6754 90.0482 21.5837L93.9696 11.4506C93.9798 11.4255 93.9836 11.3983 93.9805 11.3714C93.9775 11.3446 93.9677 11.3189 93.9522 11.2967C93.9374 11.2746 93.9174 11.2564 93.894 11.2439C93.8705 11.2313 93.8443 11.2248 93.8177 11.2248H91.4642C91.3926 11.2248 91.3297 11.2697 91.307 11.3359L88.8958 18.2209L86.2559 11.3313C86.2441 11.3001 86.2231 11.2732 86.1956 11.2542C86.1682 11.2352 86.1357 11.2249 86.1023 11.2248H82.2402V11.2243ZM77.2153 11.2143H74.9542C74.8634 11.2143 74.7883 11.2887 74.7883 11.38V21.2415C74.7883 21.334 74.8634 21.4073 74.9542 21.4073H77.2153C77.306 21.4073 77.3811 21.334 77.3811 21.2415V11.3807C77.3812 11.3589 77.3769 11.3374 77.3686 11.3172C77.3603 11.2971 77.348 11.2788 77.3326 11.2634C77.3172 11.248 77.2989 11.2358 77.2788 11.2275C77.2586 11.2192 77.237 11.215 77.2153 11.215V11.2143ZM76.0978 6.72386C75.2021 6.72386 74.4758 7.44879 74.4758 8.34431C74.4758 9.24034 75.2021 9.96614 76.0978 9.96614C76.9935 9.96614 77.7181 9.24034 77.7181 8.34431C77.7181 7.44897 76.9918 6.72386 76.0978 6.72386ZM95.9007 14.3852C95.0067 14.3852 94.3101 13.6667 94.3101 12.7943C94.3101 11.9218 95.0155 11.1951 95.9094 11.1951C96.8034 11.1951 97.5 11.9134 97.5 12.7852C97.5 13.6577 96.7946 14.3852 95.9007 14.3852ZM95.9094 11.3533C95.094 11.3533 94.4777 12.0011 94.4777 12.7943C94.4777 13.5871 95.0906 14.2261 95.9007 14.2261C96.7161 14.2261 97.3324 13.5789 97.3324 12.7852C97.3324 11.9923 96.7195 11.3533 95.9094 11.3533ZM96.2621 12.9488L96.7126 13.5787H96.3319L95.9269 13.0008H95.5794V13.5787H95.2617V11.9089H96.0054C96.3948 11.9089 96.6497 12.1074 96.6497 12.4416C96.6515 12.7154 96.4926 12.8826 96.2638 12.9488H96.2621ZM95.9932 12.1954H95.5794V12.7236H95.9932C96.1992 12.7236 96.3232 12.6225 96.3232 12.4592C96.3232 12.2874 96.1992 12.1954 95.9932 12.1954Z" fill="white"/>
</svg>
