<svg width="30" height="28" viewBox="0 0 30 28" fill="none" xmlns="http://www.w3.org/2000/svg">
<g id="Group">
<path id="Vector" fill-rule="evenodd" clip-rule="evenodd" d="M27.3855 13.9903C27.3855 17.7157 26.0486 20.8953 23.375 23.5295C20.7013 26.1636 17.4739 27.4808 13.6927 27.4808C9.91165 27.4808 6.6842 26.1636 4.0105 23.5295C1.3369 20.8953 0 17.7157 0 13.9903C0 10.265 1.3369 7.08541 4.0105 4.45124C6.6843 1.81697 9.91165 0.499939 13.6928 0.499939C17.474 0.499939 20.7014 1.81707 23.3751 4.45124C26.0488 7.08541 27.3856 10.265 27.3856 13.9903H27.3855Z" fill="white"/>
<path id="Vector_2" fill-rule="evenodd" clip-rule="evenodd" d="M21.9083 13.9902C21.9083 16.2253 21.1062 18.1332 19.502 19.7136C17.8978 21.2941 15.9614 22.0844 13.6927 22.0844C11.424 22.0844 9.48755 21.2941 7.88337 19.7136C6.27919 18.1332 5.47705 16.2253 5.47705 13.9902C5.47705 11.755 6.27919 9.84714 7.88337 8.26672C9.48755 6.6862 11.4241 5.89594 13.6927 5.89594C15.9614 5.89594 17.8978 6.6862 19.502 8.26672C21.1062 9.84714 21.9083 11.755 21.9083 13.9902Z" fill="white"/>
<path id="Vector_3" fill-rule="evenodd" clip-rule="evenodd" d="M21.9083 13.9902C21.9083 16.2253 21.1062 18.1332 19.502 19.7136C17.8978 21.2941 15.9614 22.0844 13.6927 22.0844C11.424 22.0844 9.48755 21.2941 7.88337 19.7136C6.27919 18.1332 5.47705 16.2253 5.47705 13.9902C5.47705 11.755 6.27919 9.84714 7.88337 8.26672C9.48755 6.6862 11.4241 5.89594 13.6927 5.89594C15.9614 5.89594 17.8978 6.6862 19.502 8.26672C21.1062 9.84714 21.9083 11.755 21.9083 13.9902Z" stroke="white" stroke-width="3.04257"/>
<path id="Vector_4" fill-rule="evenodd" clip-rule="evenodd" d="M10.9541 17.9754L18.0669 13.9912L10.9541 10.0048V17.9754ZM42.082 11.3393C41.4311 14.5466 40.9365 18.4621 40.6768 20.0788H40.4935C40.2833 18.4127 39.7887 14.523 39.1142 11.3662L37.447 3.5092H32.3655V24.7003H35.5166V7.23031L35.828 8.86147L39.032 24.6969H42.1844L45.3355 8.86147L45.6727 7.22126V24.6992H48.825V3.50803H43.6954L42.082 11.3393ZM57.3453 21.5177C57.0574 22.0989 56.4347 22.5025 55.8074 22.5025C55.0789 22.5025 54.791 21.9471 54.791 20.5846V9.21687H51.196V20.7848C51.196 23.6403 52.1583 24.9511 54.2965 24.9511C55.7535 24.9511 56.9249 24.3193 57.7344 22.805H57.813L58.1244 24.6981H60.9372V9.21785H57.342V21.5165H57.3454L57.3453 21.5177ZM67.8925 15.3279C66.7199 14.4937 65.9915 13.9384 65.9915 12.7265C65.9915 11.8687 66.4075 11.3886 67.3967 11.3886C68.4141 11.3886 68.7525 12.0689 68.7761 14.3947L71.7991 14.27C72.0329 10.5084 70.7558 8.94131 67.4484 8.94131C64.376 8.94131 62.8639 10.2792 62.8639 13.0312C62.8639 15.5314 64.1152 16.668 66.1466 18.1597C67.8925 19.4739 68.9087 20.2057 68.9087 21.267C68.9087 22.0764 68.3871 22.6307 67.4754 22.6307C66.4075 22.6307 65.7812 21.6448 65.9409 19.927L62.8943 19.9764C62.4233 23.1826 63.7555 25.0522 67.2955 25.0522C70.3961 25.0522 72.0115 23.6627 72.0115 20.8859C72.0082 18.3599 70.7074 17.348 67.8925 15.3279ZM77.4257 9.21687H73.9868V24.6969H77.4269V9.21785L77.4257 9.21687ZM75.7315 3.10345C74.405 3.10345 73.7776 3.58349 73.7776 5.25174C73.7776 6.96956 74.4004 7.39779 75.7326 7.39779C77.0873 7.39779 77.6865 6.96732 77.6865 5.25174C77.6865 3.66217 77.0873 3.10345 75.7315 3.10345ZM88.9892 19.1165L85.8381 18.9647C85.8381 21.6921 85.5267 22.5756 84.4598 22.5756C83.3918 22.5756 83.2086 21.5898 83.2086 18.3824V15.3808C83.2086 12.2724 83.4188 11.2899 84.4868 11.2899C85.476 11.2899 85.7369 12.2229 85.7369 15.1043L88.8599 14.9041C89.0702 12.5051 88.7554 10.8626 87.7931 9.92953C87.0881 9.24598 86.0213 8.92116 84.5374 8.92116C81.0478 8.92116 79.6145 10.74 79.6145 15.8394V18.0114C79.6145 23.2648 80.8376 24.9567 84.4081 24.9567C85.919 24.9567 86.96 24.6532 87.6638 23.9967C88.6778 23.0816 89.0678 21.5178 88.9903 19.1164L88.9892 19.1165Z" fill="white"/>
</g>
</svg>
